<?xml version="1.0" encoding="UTF-8" standalone="no"?>
<!DOCTYPE svg PUBLIC "-//W3C//DTD SVG 1.1//EN"
 "http://www.w3.org/Graphics/SVG/1.1/DTD/svg11.dtd">
<!-- Generated by graphviz version 2.44.0 (0)
 -->
<!-- Pages: 1 -->
<svg width="778pt" height="392pt"
 viewBox="0.00 0.00 777.73 392.00" xmlns="http://www.w3.org/2000/svg" xmlns:xlink="http://www.w3.org/1999/xlink">
<g id="graph0" class="graph" transform="scale(1 1) rotate(0) translate(4 388)">
<polygon fill="white" stroke="transparent" points="-4,4 -4,-388 773.73,-388 773.73,4 -4,4"/>
<!-- __root__ -->
<g id="node1" class="node">
<title>__root__</title>
<ellipse fill="none" stroke="black" cx="178.73" cy="-366" rx="137.28" ry="18"/>
<text text-anchor="middle" x="178.73" y="-362.3" font-family="Times-Roman" font-size="14.00">__root__: 1.0.0+no&#45;version&#45;set</text>
</g>
<!-- arokettu/query&#45;string&#45;proxy -->
<g id="node2" class="node">
<title>arokettu/query&#45;string&#45;proxy</title>
<ellipse fill="none" stroke="black" cx="178.73" cy="-279" rx="178.97" ry="18"/>
<text text-anchor="middle" x="178.73" y="-275.3" font-family="Times-Roman" font-size="14.00">arokettu/query&#45;string&#45;proxy: 1.0.0&#45;p7.2</text>
</g>
<!-- __root__&#45;&gt;arokettu/query&#45;string&#45;proxy -->
<g id="edge1" class="edge">
<title>__root__&#45;&gt;arokettu/query&#45;string&#45;proxy</title>
<path fill="none" stroke="black" d="M178.73,-347.8C178.73,-336.16 178.73,-320.55 178.73,-307.24"/>
<polygon fill="black" stroke="black" points="182.23,-307.18 178.73,-297.18 175.23,-307.18 182.23,-307.18"/>
<text text-anchor="middle" x="193.23" y="-318.8" font-family="Times-Roman" font-size="14.00">^1.0</text>
</g>
<!-- league/uri&#45;components -->
<g id="node3" class="node">
<title>league/uri&#45;components</title>
<ellipse fill="none" stroke="black" cx="560.73" cy="-192" rx="137.58" ry="18"/>
<text text-anchor="middle" x="560.73" y="-188.3" font-family="Times-Roman" font-size="14.00">league/uri&#45;components: 2.2.1</text>
</g>
<!-- arokettu/query&#45;string&#45;proxy&#45;&gt;league/uri&#45;components -->
<g id="edge2" class="edge">
<title>arokettu/query&#45;string&#45;proxy&#45;&gt;league/uri&#45;components</title>
<path fill="none" stroke="black" d="M248.8,-262.41C315.52,-247.56 415.69,-225.27 484.41,-209.98"/>
<polygon fill="black" stroke="black" points="485.31,-213.37 494.31,-207.78 483.79,-206.54 485.31,-213.37"/>
<text text-anchor="middle" x="407.23" y="-231.8" font-family="Times-Roman" font-size="14.00">^2.0</text>
</g>
<!-- php -->
<g id="node6" class="node">
<title>php</title>
<ellipse fill="none" stroke="black" cx="411.73" cy="-18" rx="27.1" ry="18"/>
<text text-anchor="middle" x="411.73" y="-14.3" font-family="Times-Roman" font-size="14.00">php</text>
</g>
<!-- arokettu/query&#45;string&#45;proxy&#45;&gt;php -->
<g id="edge3" class="edge">
<title>arokettu/query&#45;string&#45;proxy&#45;&gt;php</title>
<path fill="none" stroke="black" d="M172.93,-260.81C161.84,-224.52 142.12,-139.16 181.73,-87 205.19,-56.11 316.33,-34.16 375.1,-24.51"/>
<polygon fill="black" stroke="black" points="375.77,-27.94 385.09,-22.9 374.66,-21.03 375.77,-27.94"/>
<text text-anchor="middle" x="181.23" y="-144.8" font-family="Times-Roman" font-size="14.00">&gt;= 7.2</text>
</g>
<!-- league/uri&#45;interfaces -->
<g id="node4" class="node">
<title>league/uri&#45;interfaces</title>
<ellipse fill="none" stroke="black" cx="560.73" cy="-105" rx="127.28" ry="18"/>
<text text-anchor="middle" x="560.73" y="-101.3" font-family="Times-Roman" font-size="14.00">league/uri&#45;interfaces: 2.2.0</text>
</g>
<!-- league/uri&#45;components&#45;&gt;league/uri&#45;interfaces -->
<g id="edge5" class="edge">
<title>league/uri&#45;components&#45;&gt;league/uri&#45;interfaces</title>
<path fill="none" stroke="black" d="M560.73,-173.8C560.73,-162.16 560.73,-146.55 560.73,-133.24"/>
<polygon fill="black" stroke="black" points="564.23,-133.18 560.73,-123.18 557.23,-133.18 564.23,-133.18"/>
<text text-anchor="middle" x="575.23" y="-144.8" font-family="Times-Roman" font-size="14.00">^2.1</text>
</g>
<!-- psr/http&#45;message -->
<g id="node5" class="node">
<title>psr/http&#45;message</title>
<ellipse fill="none" stroke="black" cx="302.73" cy="-105" rx="112.38" ry="18"/>
<text text-anchor="middle" x="302.73" y="-101.3" font-family="Times-Roman" font-size="14.00">psr/http&#45;message: 1.0.1</text>
</g>
<!-- league/uri&#45;components&#45;&gt;psr/http&#45;message -->
<g id="edge7" class="edge">
<title>league/uri&#45;components&#45;&gt;psr/http&#45;message</title>
<path fill="none" stroke="black" d="M512.51,-175.11C468.94,-160.76 404.79,-139.62 358.92,-124.51"/>
<polygon fill="black" stroke="black" points="360.01,-121.19 349.42,-121.38 357.82,-127.83 360.01,-121.19"/>
<text text-anchor="middle" x="462.23" y="-144.8" font-family="Times-Roman" font-size="14.00">^1.0</text>
</g>
<!-- league/uri&#45;components&#45;&gt;php -->
<g id="edge6" class="edge">
<title>league/uri&#45;components&#45;&gt;php</title>
<path fill="none" stroke="black" d="M623.12,-175.86C650.69,-165.73 680.5,-149.27 696.73,-123 705.15,-109.39 703.56,-101.47 696.73,-87 686.91,-66.15 677.82,-63.31 656.73,-54 588.08,-23.68 499.04,-18.44 449.41,-18.17"/>
<polygon fill="black" stroke="black" points="449.14,-14.67 439.14,-18.19 449.15,-21.67 449.14,-14.67"/>
<text text-anchor="middle" x="717.23" y="-101.3" font-family="Times-Roman" font-size="14.00">^7.2</text>
</g>
<!-- ext&#45;json -->
<g id="node7" class="node">
<title>ext&#45;json</title>
<ellipse fill="none" stroke="black" cx="709.73" cy="-18" rx="44.69" ry="18"/>
<text text-anchor="middle" x="709.73" y="-14.3" font-family="Times-Roman" font-size="14.00">ext&#45;json</text>
</g>
<!-- league/uri&#45;components&#45;&gt;ext&#45;json -->
<g id="edge4" class="edge">
<title>league/uri&#45;components&#45;&gt;ext&#45;json</title>
<path fill="none" stroke="black" d="M657.45,-179.07C691.27,-173.41 724.18,-165.72 737.73,-156 763.59,-137.47 764.95,-117.73 756.73,-87 752.37,-70.67 742.07,-54.96 732.22,-42.77"/>
<polygon fill="black" stroke="black" points="734.69,-40.28 725.55,-34.93 729.36,-44.81 734.69,-40.28"/>
<text text-anchor="middle" x="765.73" y="-101.3" font-family="Times-Roman" font-size="14.00">*</text>
</g>
<!-- league/uri&#45;interfaces&#45;&gt;php -->
<g id="edge9" class="edge">
<title>league/uri&#45;interfaces&#45;&gt;php</title>
<path fill="none" stroke="black" d="M531.65,-87.41C505.29,-72.37 466.65,-50.33 440.41,-35.36"/>
<polygon fill="black" stroke="black" points="442.11,-32.3 431.69,-30.38 438.64,-38.38 442.11,-32.3"/>
<text text-anchor="middle" x="535.73" y="-57.8" font-family="Times-Roman" font-size="14.00">^7.1 || ^8.0</text>
</g>
<!-- league/uri&#45;interfaces&#45;&gt;ext&#45;json -->
<g id="edge8" class="edge">
<title>league/uri&#45;interfaces&#45;&gt;ext&#45;json</title>
<path fill="none" stroke="black" d="M589.82,-87.41C614.51,-73.32 649.98,-53.09 675.94,-38.28"/>
<polygon fill="black" stroke="black" points="677.73,-41.28 684.69,-33.29 674.27,-35.2 677.73,-41.28"/>
<text text-anchor="middle" x="648.73" y="-57.8" font-family="Times-Roman" font-size="14.00">*</text>
</g>
<!-- psr/http&#45;message&#45;&gt;php -->
<g id="edge10" class="edge">
<title>psr/http&#45;message&#45;&gt;php</title>
<path fill="none" stroke="black" d="M324.27,-87.21C342.21,-73.21 367.79,-53.27 386.65,-38.56"/>
<polygon fill="black" stroke="black" points="388.81,-41.32 394.54,-32.41 384.5,-35.8 388.81,-41.32"/>
<text text-anchor="middle" x="389.23" y="-57.8" font-family="Times-Roman" font-size="14.00">&gt;=5.3.0</text>
</g>
</g>
</svg>
