<?xml version="1.0" encoding="UTF-8" standalone="no"?>
<!DOCTYPE svg PUBLIC "-//W3C//DTD SVG 1.1//EN"
 "http://www.w3.org/Graphics/SVG/1.1/DTD/svg11.dtd">
<!-- Generated by graphviz version 2.44.0 (0)
 -->
<!-- Pages: 1 -->
<svg width="459pt" height="305pt"
 viewBox="0.00 0.00 459.12 305.00" xmlns="http://www.w3.org/2000/svg" xmlns:xlink="http://www.w3.org/1999/xlink">
<g id="graph0" class="graph" transform="scale(1 1) rotate(0) translate(4 301)">
<polygon fill="white" stroke="transparent" points="-4,4 -4,-301 455.12,-301 455.12,4 -4,4"/>
<!-- __root__ -->
<g id="node1" class="node">
<title>__root__</title>
<ellipse fill="none" stroke="black" cx="272.39" cy="-279" rx="137.28" ry="18"/>
<text text-anchor="middle" x="272.39" y="-275.3" font-family="Times-Roman" font-size="14.00">__root__: 1.0.0+no&#45;version&#45;set</text>
</g>
<!-- arokettu/query&#45;string&#45;proxy -->
<g id="node2" class="node">
<title>arokettu/query&#45;string&#45;proxy</title>
<ellipse fill="none" stroke="black" cx="272.39" cy="-192" rx="178.97" ry="18"/>
<text text-anchor="middle" x="272.39" y="-188.3" font-family="Times-Roman" font-size="14.00">arokettu/query&#45;string&#45;proxy: 1.0.0&#45;p7.1</text>
</g>
<!-- __root__&#45;&gt;arokettu/query&#45;string&#45;proxy -->
<g id="edge1" class="edge">
<title>__root__&#45;&gt;arokettu/query&#45;string&#45;proxy</title>
<path fill="none" stroke="black" d="M272.39,-260.8C272.39,-249.16 272.39,-233.55 272.39,-220.24"/>
<polygon fill="black" stroke="black" points="275.89,-220.18 272.39,-210.18 268.89,-220.18 275.89,-220.18"/>
<text text-anchor="middle" x="286.89" y="-231.8" font-family="Times-Roman" font-size="14.00">^1.0</text>
</g>
<!-- league/uri&#45;query&#45;parser -->
<g id="node3" class="node">
<title>league/uri&#45;query&#45;parser</title>
<ellipse fill="none" stroke="black" cx="140.39" cy="-105" rx="140.28" ry="18"/>
<text text-anchor="middle" x="140.39" y="-101.3" font-family="Times-Roman" font-size="14.00">league/uri&#45;query&#45;parser: 1.0.1</text>
</g>
<!-- arokettu/query&#45;string&#45;proxy&#45;&gt;league/uri&#45;query&#45;parser -->
<g id="edge2" class="edge">
<title>arokettu/query&#45;string&#45;proxy&#45;&gt;league/uri&#45;query&#45;parser</title>
<path fill="none" stroke="black" d="M245.99,-174C225.67,-160.92 197.39,-142.71 175.21,-128.43"/>
<polygon fill="black" stroke="black" points="177.04,-125.44 166.74,-122.97 173.25,-131.32 177.04,-125.44"/>
<text text-anchor="middle" x="228.89" y="-144.8" font-family="Times-Roman" font-size="14.00">^1.0</text>
</g>
<!-- php -->
<g id="node4" class="node">
<title>php</title>
<ellipse fill="none" stroke="black" cx="228.39" cy="-18" rx="27.1" ry="18"/>
<text text-anchor="middle" x="228.39" y="-14.3" font-family="Times-Roman" font-size="14.00">php</text>
</g>
<!-- arokettu/query&#45;string&#45;proxy&#45;&gt;php -->
<g id="edge3" class="edge">
<title>arokettu/query&#45;string&#45;proxy&#45;&gt;php</title>
<path fill="none" stroke="black" d="M280.46,-173.88C289.23,-152.81 300.57,-116.22 289.39,-87 282.14,-68.06 266.9,-51.07 253.48,-38.81"/>
<polygon fill="black" stroke="black" points="255.69,-36.1 245.85,-32.16 251.09,-41.37 255.69,-36.1"/>
<text text-anchor="middle" x="309.89" y="-101.3" font-family="Times-Roman" font-size="14.00">&lt; 7.2</text>
</g>
<!-- league/uri&#45;query&#45;parser&#45;&gt;php -->
<g id="edge4" class="edge">
<title>league/uri&#45;query&#45;parser&#45;&gt;php</title>
<path fill="none" stroke="black" d="M158.2,-86.8C172.05,-73.41 191.36,-54.77 206.22,-40.42"/>
<polygon fill="black" stroke="black" points="208.77,-42.82 213.53,-33.35 203.9,-37.78 208.77,-42.82"/>
<text text-anchor="middle" x="210.89" y="-57.8" font-family="Times-Roman" font-size="14.00">^7.1.3</text>
</g>
</g>
</svg>
